<?xml version="1.0" standalone="no"?>
<!DOCTYPE svg PUBLIC "-//W3C//DTD SVG 20010904//EN"
 "http://www.w3.org/TR/2001/REC-SVG-20010904/DTD/svg10.dtd">
<svg version="1.0" xmlns="http://www.w3.org/2000/svg"
 width="4605.000000pt" height="4605.000000pt" viewBox="0 0 4605.000000 4605.000000"
 preserveAspectRatio="xMidYMid meet">

<g transform="translate(0.000000,4605.000000) scale(0.100000,-0.100000)"
fill="#000000" stroke="none">
<path d="M19857 25453 c-4 -3 -7 -1342 -7 -2975 l0 -2968 430 0 430 0 0 626 0
625 261 285 c143 156 263 284 267 284 4 -1 282 -410 617 -910 l610 -909 513
-1 c282 0 511 4 508 8 -3 5 -384 552 -846 1217 -463 664 -840 1211 -838 1215
3 6 458 508 499 549 8 9 235 257 504 551 268 294 502 550 518 568 l31 32 -525
-1 -524 0 -637 -687 c-351 -378 -679 -732 -730 -787 -51 -55 -123 -131 -160
-170 l-68 -70 0 1763 0 1762 -423 0 c-233 0 -427 -3 -430 -7z"/>
<path d="M12370 24840 c0 -7 -8 -10 -20 -7 -20 5 -20 0 -20 -1804 l0 -1809
2494 0 2495 0 -182 173 c-591 560 -1340 1341 -1901 1982 -87 99 -163 182 -168
184 -6 2 -8 -1 -5 -6 3 -5 0 -10 -8 -10 -11 0 -12 4 -3 14 6 7 8 17 4 20 -4 4
-12 1 -17 -7 -9 -12 -10 -11 -6 6 2 12 0 28 -5 35 -7 12 -9 11 -7 -1 3 -29 -1
-41 -11 -35 -5 3 -10 1 -10 -5 0 -6 -4 -8 -10 -5 -9 5 -15 -15 -11 -37 0 -5
-5 -8 -11 -8 -10 0 -9 -3 1 -9 14 -9 3 -11 -74 -14 -30 -2 -33 -4 -19 -14 9
-7 20 -10 25 -8 4 3 5 -4 2 -15 -7 -27 -31 -25 -43 3 -5 12 -9 16 -9 9 -1 -7
4 -22 9 -33 7 -13 7 -19 0 -19 -5 0 -10 6 -10 13 0 8 -4 7 -10 -3 -8 -12 -10
-12 -10 -1 0 8 -3 12 -6 9 -3 -4 -1 -15 5 -27 9 -17 8 -22 -10 -32 -20 -10
-21 -9 -17 20 6 41 -5 27 -22 -27 -12 -37 -15 -41 -21 -24 -8 20 -39 25 -40 6
-1 -14 -31 -44 -44 -44 -6 0 -12 -7 -12 -15 0 -8 7 -15 16 -15 14 0 14 -2 1
-10 -9 -5 -19 -5 -26 1 -16 13 -25 -2 -19 -30 2 -11 0 -21 -6 -21 -5 0 -9 5
-9 10 0 16 -26 12 -41 -6 -7 -9 -22 -20 -34 -24 -16 -7 -17 -9 -3 -9 10 -1 26
8 36 19 18 20 20 20 33 3 12 -16 12 -17 -1 -7 -12 9 -19 7 -34 -10 -12 -15
-27 -21 -41 -18 -13 2 -26 -2 -30 -9 -5 -8 -4 -10 3 -5 7 4 12 1 12 -8 0 -20
-5 -20 -24 0 -14 13 -16 13 -16 1 0 -9 6 -18 13 -21 6 -3 1 -3 -12 0 -17 4
-21 3 -16 -6 6 -9 1 -10 -16 -5 -22 7 -23 6 -9 -10 13 -15 12 -17 -10 -13 -20
2 -26 -2 -28 -19 -2 -13 -10 -23 -18 -23 -8 0 -12 -4 -9 -10 3 -5 1 -10 -4
-10 -10 0 -15 14 -12 33 1 5 -3 6 -8 2 -6 -3 -8 -12 -4 -20 3 -11 -2 -15 -17
-15 -22 0 -21 -2 10 -32 20 -19 26 -28 14 -23 -10 4 -27 7 -36 7 -20 -1 -24
14 -6 20 8 3 6 7 -5 11 -9 3 -16 3 -16 -1 3 -21 -3 -32 -17 -32 -9 0 -14 -6
-11 -13 3 -8 1 -20 -4 -28 -7 -11 -9 -10 -10 6 -1 11 -1 25 0 30 1 6 -4 3 -11
-6 -7 -9 -20 -18 -28 -22 -10 -3 -6 -6 10 -7 14 -1 19 -4 12 -7 -6 -2 -10 -9
-6 -14 3 -5 0 -8 -7 -7 -8 2 -13 -6 -14 -19 0 -12 -4 -25 -8 -30 -5 -4 -7 -1
-5 7 2 11 -5 14 -24 13 -18 -1 -28 4 -31 15 -3 11 -5 9 -6 -7 -1 -20 2 -22 27
-17 18 4 22 3 13 -2 -11 -8 -11 -11 0 -16 8 -3 4 -3 -9 0 -15 4 -24 0 -28 -10
-3 -9 -11 -13 -16 -10 -6 4 -8 1 -6 -7 3 -8 11 -13 17 -11 7 1 9 -3 6 -9 -5
-8 -11 -7 -20 3 -29 31 -212 341 -318 538 -16 30 -38 69 -47 85 -10 17 -76
147 -148 290 -120 241 -156 317 -273 575 -23 52 -45 97 -48 100 -3 3 -6 11 -7
18 -2 28 -5 32 -24 32 -13 0 -20 -7 -20 -20 0 -11 5 -20 10 -20 6 0 10 5 10
12 0 6 3 8 6 5 8 -8 -14 -37 -27 -37 -5 0 -9 7 -9 15 0 20 -9 19 -33 -2 -11
-10 -17 -13 -14 -6 8 13 -18 12 -30 -2 -4 -4 -3 -5 3 -2 14 8 16 -41 3 -49 -5
-3 -9 0 -9 5 0 6 -9 11 -20 11 -11 0 -20 5 -20 11 0 6 -8 8 -19 4 -22 -7 -35
17 -18 34 18 18 47 14 40 -6 -4 -11 -3 -14 5 -9 17 10 15 36 -3 36 -13 0 -19
12 -16 32 0 4 -6 5 -14 2 -8 -4 -15 -12 -15 -20 0 -10 -8 -13 -24 -10 -20 4
-24 1 -18 -12 3 -9 14 -25 23 -36 16 -17 16 -20 1 -51 -15 -28 -18 -30 -30
-16 -10 13 -12 13 -10 1 2 -9 -7 -16 -22 -18 -14 -2 -29 -8 -34 -13 -6 -5 -19
-9 -30 -9 -16 0 -18 -2 -7 -9 7 -5 22 -6 34 -3 13 3 18 1 14 -6 -4 -5 -15 -9
-25 -8 -9 2 -23 -4 -30 -13 -12 -15 -13 -14 -8 1 3 10 1 20 -4 23 -6 4 -10
-10 -11 -32 -1 -37 -1 -37 -9 -10 -5 16 -7 36 -4 45 2 10 -2 3 -11 -15 -9 -19
-20 -30 -28 -27 -7 2 -19 -6 -27 -20 -7 -14 -17 -23 -22 -20 -4 3 -6 9 -3 14
3 4 -2 10 -10 13 -11 5 -12 1 -5 -19 10 -25 10 -25 -36 -18 -36 5 -45 4 -39
-6 4 -6 16 -10 26 -7 24 6 25 -9 1 -22 -11 -6 -24 -6 -33 0 -20 13 -29 11 -29
-6 0 -8 -5 -15 -11 -15 -5 0 -7 5 -4 10 3 6 0 10 -7 10 -9 0 -9 3 2 10 9 6 10
10 3 10 -6 0 -20 3 -30 6 -15 5 -15 4 -3 -5 8 -6 11 -11 6 -11 -5 0 -3 -7 4
-15 13 -16 6 -35 -13 -34 -9 0 -8 2 1 6 6 2 9 9 6 14 -3 6 -11 5 -20 -2 -11
-9 -14 -8 -15 2 0 8 -3 26 -5 41 -4 22 -1 26 11 22 10 -4 15 0 16 12 0 11 3
14 5 9 7 -18 73 -5 85 17 6 12 18 18 28 15 21 -5 62 23 44 30 -27 10 -11 18
34 18 31 0 48 5 51 14 3 9 0 11 -9 5 -12 -7 -12 -5 0 9 15 18 2 24 -16 6 -5
-5 -27 -12 -47 -15 -38 -4 -84 -39 -63 -47 7 -2 -1 -3 -17 -1 -22 3 -27 1 -22
-11 4 -10 -1 -15 -15 -15 -11 0 -17 5 -14 10 4 6 -8 2 -27 -10 -18 -11 -36
-20 -39 -20 -3 0 -6 17 -7 38 -1 20 -4 46 -6 57 -2 11 -9 131 -16 265 -7 135
-14 247 -17 250 -2 2 -31 3 -64 2 -36 -2 -66 1 -75 9 -11 9 -14 9 -14 -1z
m690 -414 c-7 -7 -13 -7 -20 0 -6 6 -3 10 10 10 13 0 16 -4 10 -10z m130 -42
c0 -8 -19 -13 -24 -6 -3 5 1 9 9 9 8 0 15 -2 15 -3z m30 -14 c0 -5 -2 -10 -4
-10 -3 0 -8 5 -11 10 -3 6 -1 10 4 10 6 0 11 -4 11 -10z m-145 -10 c3 -5 1
-10 -4 -10 -6 0 -11 5 -11 10 0 6 2 10 4 10 3 0 8 -4 11 -10z m1759 -1008 c3
-5 -1 -9 -9 -9 -8 0 -12 4 -9 9 3 4 7 8 9 8 2 0 6 -4 9 -8z m-107 -37 c0 -8
-4 -12 -9 -9 -5 3 -6 10 -3 15 9 13 12 11 12 -6z m-187 -185 c0 -5 -5 -10 -11
-10 -5 0 -7 5 -4 10 3 6 8 10 11 10 2 0 4 -4 4 -10z m-60 -34 c0 -3 -4 -8 -10
-11 -5 -3 -10 -1 -10 4 0 6 5 11 10 11 6 0 10 -2 10 -4z m-177 -120 c3 -8 -2
-16 -13 -19 -20 -5 -23 12 -5 25 13 10 12 10 18 -6z"/>
<path d="M13227 24509 c5 -23 5 -24 -10 -4 -8 11 -19 17 -23 12 -4 -4 -3 -7 3
-7 6 0 10 -15 8 -35 -2 -19 1 -35 6 -35 6 0 7 9 4 21 -5 14 -3 19 3 15 14 -9
27 33 14 46 -8 8 -9 4 -5 -13z"/>
<path d="M13154 24497 c-20 -11 -20 -13 -6 -27 14 -13 15 -12 9 3 -4 11 -1 17
8 17 8 0 15 5 15 10 0 12 0 12 -26 -3z"/>
<path d="M12984 24412 c3 -18 2 -21 -9 -12 -9 8 -14 6 -17 -8 -3 -10 -12 -19
-19 -19 -8 0 -27 -3 -42 -7 -16 -4 -27 -2 -27 4 0 5 -5 10 -12 10 -9 0 -9 -3
-1 -11 6 -6 9 -18 6 -25 -3 -8 0 -14 7 -14 6 0 8 4 5 10 -4 6 12 8 40 6 33 -2
45 0 45 10 0 8 7 14 15 14 15 0 35 30 35 52 0 10 -2 10 -9 -1 -7 -11 -10 -11
-15 0 -3 8 -4 4 -2 -9z"/>
<path d="M12935 24400 c-3 -5 -1 -10 4 -10 6 0 11 5 11 10 0 6 -2 10 -4 10 -3
0 -8 -4 -11 -10z"/>
<path d="M12910 24316 c0 -2 7 -7 16 -10 8 -3 12 -2 9 4 -6 10 -25 14 -25 6z"/>
<path d="M12831 24254 c0 -11 3 -14 6 -6 3 7 2 16 -1 19 -3 4 -6 -2 -5 -13z"/>
<path d="M11724 23926 c5 -15 2 -17 -13 -13 -11 3 -24 0 -29 -7 -5 -6 -19
-101 -32 -211 -15 -121 -29 -205 -37 -213 -7 -7 -13 -10 -13 -5 0 4 -5 0 -11
-10 -8 -13 -7 -22 1 -33 9 -10 9 -14 1 -14 -6 0 -11 -10 -10 -22 0 -22 1 -22
9 -3 8 19 9 19 9 -2 1 -20 -4 -23 -41 -23 -32 0 -39 3 -28 10 10 6 11 10 3 10
-7 0 -13 11 -13 24 0 21 4 24 28 20 22 -4 28 -1 28 15 0 20 -24 18 -38 -3 -5
-7 -8 -7 -8 -1 0 6 -16 10 -36 11 -19 0 -30 -3 -23 -7 8 -5 4 -9 -12 -12 l-24
-4 25 -2 c22 -2 20 -4 -12 -14 l-37 -12 24 -21 c21 -19 23 -19 22 -3 -1 10 -5
15 -9 13 -4 -3 -8 0 -8 5 0 6 11 11 25 11 14 0 25 -5 25 -11 0 -5 -4 -7 -10
-4 -5 3 -10 2 -10 -3 0 -14 28 -23 34 -11 2 5 3 4 2 -3 -2 -7 -8 -13 -15 -13
-7 0 -19 -9 -27 -19 -11 -16 -14 -17 -14 -4 0 22 -26 43 -33 26 -4 -10 -7 -10
-15 1 -8 11 -10 11 -14 0 -3 -8 2 -20 11 -27 9 -8 10 -10 3 -7 -7 4 -22 -1
-33 -11 -10 -9 -19 -14 -19 -9 0 4 8 14 18 22 16 14 16 14 -2 9 -15 -5 -17 -4
-7 8 9 11 8 15 -4 20 -8 3 -15 12 -15 21 0 18 11 20 27 4 7 -7 16 -5 29 8 17
17 17 18 -4 21 -11 2 -31 -2 -42 -8 -17 -9 -21 -18 -17 -45 5 -40 -4 -57 -34
-62 -26 -4 -59 -31 -59 -48 0 -14 -140 -351 -199 -478 -22 -48 -45 -86 -52
-85 -6 2 -14 -4 -16 -12 -4 -13 -3 -13 7 0 10 13 11 12 6 -3 -3 -10 -6 -20 -6
-23 0 -2 -8 -1 -17 3 -10 3 -15 2 -11 -2 11 -11 -50 -47 -65 -38 -7 3 -4 -3 7
-15 18 -21 18 -21 -8 -16 -14 2 -26 0 -26 -6 0 -6 -9 -6 -25 0 -16 6 -27 6
-31 -2 -5 -7 -3 -8 6 -3 9 6 11 4 6 -4 -5 -7 -14 -10 -22 -7 -7 3 -16 1 -19
-4 -3 -5 -13 -7 -23 -4 -10 4 -13 2 -7 -3 10 -8 18 -33 11 -33 -3 0 -12 7 -20
16 -9 8 -16 11 -16 5 0 -6 -8 -11 -17 -12 -15 0 -15 -2 2 -9 17 -7 17 -9 3 -9
-10 -1 -18 -6 -18 -13 0 -6 -3 -8 -7 -5 -3 4 -12 -2 -20 -12 -8 -12 -22 -18
-33 -16 -11 2 -22 0 -25 -6 -4 -5 -15 -9 -26 -9 -10 0 -19 -5 -19 -11 0 -6 7
-9 15 -6 8 4 17 2 20 -3 9 -15 -29 -12 -44 3 -11 10 -13 10 -7 0 4 -8 1 -13
-8 -13 -9 0 -16 -5 -16 -11 0 -6 -7 -9 -15 -5 -8 3 -15 1 -15 -4 0 -6 -7 -10
-16 -10 -9 0 -12 -5 -8 -12 6 -10 4 -10 -7 0 -7 6 -22 11 -33 11 -17 -1 -18
-2 -3 -6 9 -2 17 -9 17 -15 0 -5 -7 -8 -15 -5 -8 4 -17 2 -20 -3 -9 -15 -27
-12 -20 3 4 6 0 4 -8 -5 -8 -10 -19 -18 -25 -18 -6 0 -15 -7 -20 -15 -4 -9
-18 -17 -30 -18 -13 -1 -21 -7 -19 -16 1 -9 -4 -16 -11 -16 -7 0 -17 -7 -22
-15 -5 -8 -12 -11 -16 -8 -11 11 -86 -31 -78 -44 5 -7 3 -8 -6 -3 -7 4 -16 2
-20 -5 -4 -7 -15 -10 -25 -7 -10 4 -13 12 -9 19 6 10 5 11 -8 1 -8 -7 -19 -9
-23 -5 -5 4 -5 1 -1 -6 4 -7 11 -10 16 -7 4 3 13 -2 19 -9 9 -11 9 -16 0 -22
-7 -4 -9 -3 -5 4 4 7 -1 10 -14 9 -11 -1 -20 -7 -20 -15 0 -7 -5 -10 -10 -7
-6 4 -7 12 -4 18 19 34 -22 -21 -97 -128 -129 -187 -299 -422 -461 -637 l-148
-198 1245 0 1245 0 0 1345 c0 876 -4 1345 -10 1346 -6 1 -16 2 -22 3 -7 1 -16
-3 -20 -9 -5 -6 -8 -5 -8 3 0 7 -5 10 -12 6 -6 -4 -18 2 -26 12 -14 18 -14 18
-8 0z m-104 -496 c0 -11 -2 -20 -4 -20 -2 0 -6 9 -9 20 -3 11 -1 20 4 20 5 0
9 -9 9 -20z m-230 -16 c0 -8 -19 -13 -24 -6 -3 5 1 9 9 9 8 0 15 -2 15 -3z
m-603 -876 c-3 -8 -6 -5 -6 6 -1 11 2 17 5 13 3 -3 4 -12 1 -19z m-423 -214
c3 -8 2 -12 -4 -9 -6 3 -10 10 -10 16 0 14 7 11 14 -7z"/>
<path d="M25375 23740 c-236 -18 -509 -86 -701 -175 -82 -39 -256 -139 -334
-193 -466 -324 -768 -866 -840 -1508 -13 -120 -13 -462 0 -586 87 -830 607
-1514 1336 -1757 143 -48 326 -86 489 -102 148 -14 468 -6 615 16 223 33 463
106 629 190 73 36 224 127 247 149 7 6 42 31 78 56 89 62 267 244 357 365 64
87 195 303 187 310 -9 9 -749 337 -752 334 -2 -2 -21 -36 -44 -74 -162 -281
-409 -473 -700 -545 -185 -46 -417 -49 -614 -9 -439 88 -776 391 -902 811 -28
93 -54 228 -58 303 l-3 50 1573 3 1572 2 0 73 c0 184 -34 484 -75 667 -183
811 -690 1385 -1381 1565 -193 50 -455 71 -679 55z m284 -740 c181 -19 336
-73 478 -166 77 -51 225 -194 279 -271 83 -116 149 -294 169 -455 l6 -58
-1090 0 -1090 0 6 38 c54 372 296 674 663 825 105 43 235 76 343 86 120 12
126 12 236 1z"/>
<path d="M29909 23739 c-215 -20 -439 -101 -627 -226 -102 -68 -247 -210 -322
-316 l-55 -78 -3 33 c-2 18 -11 137 -20 263 l-17 230 -397 3 -398 2 0 -2070 0
-2070 424 0 425 0 4 1193 c4 1294 3 1282 61 1508 57 224 135 370 270 505 77
77 106 98 186 138 143 70 227 89 395 89 204 1 333 -34 475 -128 206 -137 308
-340 367 -727 15 -101 17 -245 20 -1345 l4 -1233 429 0 429 0 4 1228 c3 1061
6 1238 19 1308 61 317 147 501 308 665 85 86 106 101 200 147 163 78 324 105
500 82 252 -33 426 -136 554 -330 107 -163 166 -410 186 -785 5 -99 10 -660
10 -1247 l0 -1068 425 0 425 0 0 1288 c0 757 -4 1334 -10 1402 -35 407 -130
719 -298 975 -63 96 -249 281 -347 344 -246 161 -544 235 -895 225 -516 -15
-924 -284 -1181 -777 l-56 -108 -18 48 c-26 71 -111 229 -160 298 -173 243
-427 413 -730 489 -177 44 -408 62 -586 45z"/>
<path d="M36410 23743 c-291 -14 -544 -75 -763 -184 -217 -108 -382 -243 -574
-469 -35 -41 -161 -236 -192 -299 -13 -24 -19 -47 -14 -51 6 -7 507 -195 705
-266 l38 -13 43 67 c175 269 407 413 732 453 177 22 403 -5 538 -65 126 -55
264 -179 336 -300 67 -112 138 -338 164 -521 l13 -90 -680 -6 c-555 -5 -700
-9 -781 -22 -254 -40 -407 -87 -585 -178 -327 -167 -524 -416 -607 -768 -33
-141 -43 -433 -20 -586 59 -386 273 -678 622 -849 172 -85 343 -134 580 -168
141 -20 527 -17 650 5 205 38 396 117 540 224 92 69 212 192 270 277 48 70 42
91 58 -208 l12 -211 392 -3 392 -2 3 92 c6 124 13 1350 13 1963 -1 531 -8 624
-61 863 -42 187 -169 529 -210 563 -7 6 -11 15 -9 20 5 8 -80 134 -114 170 -9
9 -25 29 -36 45 -27 39 -90 102 -145 144 -25 19 -51 40 -58 47 -26 25 -200
128 -277 163 -157 73 -364 128 -565 149 -111 11 -317 19 -410 14z m1040 -2525
c0 -448 -213 -805 -584 -978 -282 -132 -703 -132 -971 -1 -124 61 -212 156
-257 279 -33 86 -32 280 0 375 61 175 184 288 387 356 203 67 327 78 953 80
l472 1 0 -112z"/>
<path d="M14996 23605 c4 -8 8 -15 10 -15 2 0 4 7 4 15 0 8 -4 15 -10 15 -5 0
-7 -7 -4 -15z"/>
<path d="M14960 23552 c0 -7 -7 -9 -17 -5 -12 5 -15 2 -10 -9 7 -19 -15 -30
-40 -21 -14 5 -16 3 -6 -7 10 -10 18 -10 42 -1 28 12 47 38 36 49 -3 3 -5 0
-5 -6z"/>
<path d="M14814 23479 c-4 -7 -3 -9 4 -5 5 3 13 0 15 -6 4 -9 6 -10 6 -1 1 17
-16 25 -25 12z"/>
<path d="M14711 23413 c-7 -8 -11 -16 -8 -19 2 -2 10 2 17 11 17 20 9 27 -9 8z"/>
<path d="M11551 23394 c0 -11 3 -14 6 -6 3 7 2 16 -1 19 -3 4 -6 -2 -5 -13z"/>
<path d="M11289 23383 c-13 -16 -12 -17 4 -4 16 13 21 21 13 21 -2 0 -10 -8
-17 -17z"/>
<path d="M14678 23346 c-3 -14 -2 -26 3 -26 14 0 20 20 11 36 -8 14 -10 12
-14 -10z"/>
<path d="M11273 23335 c0 -7 6 -11 14 -8 7 3 13 6 13 8 0 2 -6 5 -13 8 -8 3
-14 -1 -14 -8z"/>
<path d="M14606 23315 c-11 -8 -15 -15 -9 -15 6 0 16 7 23 15 16 19 11 19 -14
0z"/>
<path d="M14622 23292 c-31 -32 -24 -46 9 -18 15 13 24 27 20 32 -3 5 -16 -1
-29 -14z"/>
<path d="M14518 23213 c7 -3 16 -2 19 1 4 3 -2 6 -13 5 -11 0 -14 -3 -6 -6z"/>
<path d="M14300 23099 c0 -5 5 -7 10 -4 6 3 10 8 10 11 0 2 -4 4 -10 4 -5 0
-10 -5 -10 -11z"/>
<path d="M14380 23090 c0 -11 2 -20 4 -20 2 0 6 9 9 20 3 11 1 20 -4 20 -5 0
-9 -9 -9 -20z"/>
<path d="M14180 22930 c0 -5 -7 -6 -17 -3 -10 4 -14 2 -10 -4 13 -20 43 -21
43 -2 0 11 -4 19 -8 19 -4 0 -8 -4 -8 -10z"/>
<path d="M14098 22916 c-10 -7 -15 -16 -11 -19 10 -10 25 -8 19 2 -4 5 0 11 6
14 7 2 11 7 8 10 -3 3 -13 0 -22 -7z"/>
<path d="M10907 22659 c7 -7 15 -10 18 -7 3 3 -2 9 -12 12 -14 6 -15 5 -6 -5z"/>
<path d="M10635 22490 c3 -5 8 -10 11 -10 2 0 4 5 4 10 0 6 -5 10 -11 10 -5 0
-7 -4 -4 -10z"/>
<path d="M10566 22482 c-3 -5 1 -9 9 -9 8 0 12 4 9 9 -3 4 -7 8 -9 8 -2 0 -6
-4 -9 -8z"/>
<path d="M10150 22290 c0 -5 7 -7 15 -4 8 4 15 8 15 10 0 2 -7 4 -15 4 -8 0
-15 -4 -15 -10z"/>
<path d="M10170 22270 c0 -5 5 -10 11 -10 5 0 7 5 4 10 -3 6 -8 10 -11 10 -2
0 -4 -4 -4 -10z"/>
<path d="M8330 19756 l995 -996 2795 2 c1537 0 2728 4 2645 9 -296 15 -561 38
-850 75 -143 18 -155 21 -135 34 8 6 10 10 5 10 -6 0 -16 -5 -22 -11 -8 -8
-25 -9 -50 -4 -21 5 -44 7 -50 6 -7 -1 -13 3 -13 8 0 6 -7 7 -17 4 -12 -5 -14
-3 -8 8 7 11 6 12 -6 2 -10 -8 -28 -9 -64 -1 -28 5 -55 10 -62 11 -7 0 -9 5
-6 10 4 6 0 8 -10 4 -9 -3 -19 -3 -21 2 -9 14 11 66 23 63 7 -1 10 2 6 8 -3 6
-10 8 -15 5 -4 -3 -11 1 -14 7 -4 9 -5 8 -5 -2 3 -38 0 -43 -16 -30 -9 7 -18
10 -22 6 -3 -3 -1 -6 6 -6 7 0 11 -6 9 -12 -3 -7 2 -19 10 -27 11 -12 12 -16
2 -19 -7 -3 -15 0 -19 5 -3 6 -16 9 -28 8 -13 -1 -23 2 -23 6 0 4 -9 6 -21 4
-16 -3 -18 -1 -10 9 15 18 2 27 -20 15 -11 -5 -19 -6 -19 -2 0 4 -5 1 -11 -7
-8 -12 -9 -12 -7 4 2 13 -6 25 -22 33 -14 7 -18 13 -10 13 13 0 13 1 0 10 -13
8 -12 10 3 10 25 0 22 42 -4 58 -15 10 -24 11 -32 3 -16 -16 -27 -13 -26 7 0
9 3 12 6 5 3 -10 9 -10 24 0 16 10 21 9 29 -3 8 -12 10 -10 10 10 0 30 20 66
20 38 0 -11 5 -15 15 -12 8 4 15 1 15 -5 0 -6 5 -11 11 -11 5 0 8 4 4 9 -3 5
0 13 6 17 8 4 9 3 5 -4 -4 -7 -1 -12 10 -12 13 0 14 -3 5 -13 -6 -8 -7 -18 -3
-23 4 -4 0 -3 -10 4 -9 7 -27 15 -40 17 -24 5 -25 3 -24 -48 1 -30 6 -55 14
-60 7 -5 10 -12 7 -17 -3 -5 -1 -11 5 -15 5 -3 10 1 10 9 0 8 4 18 10 21 6 4
7 -1 3 -11 -4 -11 -3 -15 4 -11 6 4 19 0 27 -9 11 -10 16 -11 16 -3 0 6 -8 18
-17 26 -16 13 -16 13 5 3 13 -6 22 -7 22 -1 0 5 -6 12 -12 14 -10 4 -9 8 2 16
12 9 11 11 -8 11 -16 0 -21 -4 -16 -12 6 -10 4 -10 -7 -2 -8 6 -21 14 -29 18
-8 3 -5 4 8 2 12 -2 22 0 22 5 0 5 -9 9 -19 9 -11 0 -22 4 -25 9 -3 4 5 6 17
4 12 -2 31 3 42 11 12 9 15 15 7 16 -7 0 -10 5 -7 10 4 6 11 8 16 5 16 -11 10
7 -8 22 -17 13 -16 14 4 10 12 -3 27 1 33 8 9 11 4 12 -24 5 -26 -6 -40 -4
-53 7 -17 14 -17 14 0 9 10 -3 16 -2 12 3 -3 5 0 11 7 13 9 3 9 6 0 12 -7 4
-12 2 -12 -3 0 -6 -12 -11 -27 -10 -16 0 -21 3 -13 6 34 11 59 27 54 34 -2 5
-11 6 -18 3 -8 -3 -17 -1 -21 5 -3 7 0 8 9 5 11 -4 16 0 16 15 0 16 -6 21 -24
21 -20 0 -24 -4 -21 -25 1 -14 -1 -25 -5 -25 -4 0 -8 18 -8 40 0 22 4 40 9 40
6 0 7 -4 4 -10 -3 -5 1 -10 10 -10 9 0 13 5 10 10 -3 6 -2 10 4 10 5 0 11 -6
14 -12 3 -7 5 -4 4 8 -1 12 -7 21 -15 20 -14 -1 -23 19 -26 61 -1 15 -4 19
-13 11 -13 -10 -6 -38 11 -50 7 -5 5 -8 -4 -8 -13 0 -13 -1 0 -10 13 -8 12
-10 -4 -10 -12 0 -16 5 -12 15 3 8 1 15 -5 15 -6 0 -9 7 -5 15 3 10 -1 15 -11
15 -9 0 -13 -3 -10 -7 4 -3 2 -12 -5 -20 -8 -10 -8 -12 4 -8 9 4 15 0 15 -9 0
-8 -4 -13 -8 -10 -4 2 -9 -1 -11 -6 -2 -6 -8 3 -15 20 -6 16 -8 29 -5 27 4 -2
23 12 42 30 19 19 30 33 25 31 -6 -2 -10 1 -10 7 0 5 3 9 6 8 3 -1 6 5 6 13 0
7 -3 12 -5 9 -3 -3 -10 0 -17 5 -8 6 -18 5 -30 -4 -14 -10 -15 -15 -5 -21 8
-5 11 -4 7 1 -3 6 4 11 16 11 20 2 20 1 4 -8 -12 -7 -16 -17 -12 -30 5 -14 2
-17 -8 -13 -10 3 -17 -2 -20 -13 -4 -15 -5 -14 -6 4 0 12 -7 23 -13 26 -7 2
-5 3 5 1 9 -1 14 2 11 7 -9 15 6 49 22 49 10 0 13 7 8 25 -4 16 -2 25 6 25 6
0 8 5 5 10 -3 6 -2 10 4 10 6 0 7 -15 4 -37 -3 -22 -2 -35 3 -30 5 5 10 17 10
28 3 36 4 39 19 39 8 0 15 5 15 10 0 13 -17 13 -25 0 -5 -8 -11 -8 -19 -1 -7
6 -16 8 -19 5 -3 -4 -13 1 -22 10 -9 9 -21 16 -28 16 -6 0 -2 -7 9 -16 10 -8
13 -13 7 -9 -7 3 -13 4 -13 0 0 -3 10 -10 23 -15 l22 -9 -24 0 c-22 -1 -23 -2
-7 -26 14 -21 14 -24 1 -19 -8 4 -16 14 -17 23 0 9 -2 21 -3 26 -2 6 -3 16 -4
23 0 7 -5 10 -11 7 -7 -4 -7 2 0 19 6 16 6 27 -1 31 -5 4 -9 3 -8 -2 1 -4 1
-15 0 -23 -1 -13 -3 -13 -10 0 -6 8 -7 18 -5 22 3 4 0 8 -5 8 -6 0 -11 8 -11
17 0 16 1 16 13 0 11 -15 14 -15 32 1 11 10 21 24 23 32 3 11 -1 10 -15 -3
-16 -14 -22 -15 -37 -4 -16 12 -15 13 6 14 24 2 51 30 42 45 -7 12 -24 0 -20
-15 1 -7 1 -9 -1 -5 -2 4 -10 6 -16 4 -7 -1 -9 -1 -4 1 4 3 7 9 7 14 0 6 -5 7
-11 3 -8 -4 -9 1 -4 16 5 15 4 20 -4 16 -6 -4 -19 -3 -28 2 -10 6 -38 13 -63
16 -25 4 -62 10 -83 15 -21 5 -49 8 -62 6 -14 -1 -23 1 -20 5 2 3 -46 16 -108
28 -62 11 -195 37 -297 57 -102 20 -205 40 -230 45 -180 33 -326 61 -390 74
-872 172 -2770 484 -4145 681 -170 25 -326 47 -345 50 -31 6 79 -108 960 -989z
m4715 12 c5 4 5 2 1 -5 -4 -7 -13 -10 -21 -6 -8 3 -15 1 -15 -5 0 -6 6 -13 13
-15 7 -3 6 -6 -5 -6 -20 -1 -32 15 -18 24 6 4 7 11 4 17 -4 6 0 6 13 -1 11 -6
24 -7 28 -3z m29 -15 c-5 -17 -4 -17 9 0 9 11 18 14 21 8 7 -11 -32 -36 -41
-27 -6 6 4 36 11 36 3 0 3 -8 0 -17z m-134 3 c0 -2 -6 -9 -13 -15 -10 -8 -14
-7 -14 4 0 8 6 15 14 15 7 0 13 -2 13 -4z m185 -37 c-4 -35 -12 -46 -22 -34
-5 4 -2 10 5 12 6 3 9 9 6 14 -3 6 -3 16 0 24 9 25 15 17 11 -16z m-88 -27 c0
-13 0 -22 -1 -20 0 2 -9 12 -18 23 -16 20 -16 21 0 21 11 0 18 -9 19 -24z m43
-2 c0 -11 -4 -20 -8 -20 -4 0 -8 9 -8 20 0 11 4 20 8 20 4 0 8 -9 8 -20z m-66
-16 c3 -8 2 -12 -4 -9 -6 3 -10 10 -10 16 0 14 7 11 14 -7z m-67 0 c-3 -3 -12
-4 -19 -1 -8 3 -5 6 6 6 11 1 17 -2 13 -5z m74 -41 c12 -16 12 -17 -2 -6 -9 7
-20 9 -24 5 -5 -4 -5 -1 -1 6 9 16 11 15 27 -5z m84 -3 c-3 -5 -12 -10 -18
-10 -7 0 -6 4 3 10 19 12 23 12 15 0z m-151 -56 c3 -8 2 -12 -4 -9 -6 3 -10
10 -10 16 0 14 7 11 14 -7z m-34 -49 c-5 -7 -8 -14 -5 -17 3 -2 -2 -5 -10 -5
-10 0 -12 4 -5 12 5 7 8 14 5 17 -3 2 2 5 10 5 10 0 12 -4 5 -12z m121 -22
c12 -16 12 -17 -2 -6 -9 7 -20 9 -24 5 -5 -4 -5 -1 -1 6 9 16 11 15 27 -5z
m140 -10 c7 -10 9 -15 5 -11 -5 4 -14 4 -20 -1 -21 -16 -45 -20 -52 -9 -4 6
-3 9 2 6 14 -9 56 11 49 22 -10 17 2 11 16 -7z m9 -37 c0 -11 -19 -15 -25 -6
-3 5 1 10 9 10 9 0 16 -2 16 -4z m-21 -78 c7 11 9 10 14 -3 4 -9 3 -13 -3 -10
-6 3 -10 -1 -10 -9 0 -9 -4 -16 -10 -16 -5 0 -10 7 -10 16 0 8 -4 12 -10 9 -6
-3 -7 1 -3 10 5 13 7 14 14 3 8 -11 10 -11 18 0z m71 -90 c0 -11 -28 -10 -35
1 -3 6 4 9 15 8 11 -1 20 -5 20 -9z m-109 -21 c-10 -9 -11 -8 -5 6 3 10 9 15
12 12 3 -3 0 -11 -7 -18z m127 -50 c7 3 10 -1 6 -11 -5 -12 -9 -13 -25 -3 -10
6 -21 18 -24 26 -5 12 -3 12 12 -1 10 -8 24 -13 31 -11z m-48 -37 c-6 -11 -12
-20 -14 -20 -2 0 -2 9 1 20 3 11 9 20 15 20 5 0 4 -9 -2 -20z m50 -12 c-1 -15
-50 -54 -50 -39 0 5 -8 12 -17 14 -10 3 -5 5 12 4 17 -1 30 3 31 11 2 20 4 22
14 22 6 0 10 -6 10 -12z m-108 -40 c-8 -8 -9 -4 -5 13 4 13 8 18 11 10 2 -7
-1 -18 -6 -23z m15 -15 c-4 -3 -1 -13 6 -22 11 -14 10 -14 -5 -2 -16 12 -16
31 -1 31 4 0 3 -3 0 -7z m-182 -43 c3 -6 -1 -7 -9 -4 -18 7 -21 14 -7 14 6 0
13 -4 16 -10z m240 -98 c-3 -3 -11 0 -18 7 -9 10 -8 11 6 5 10 -3 15 -9 12
-12z"/>
<path d="M13203 19730 c4 -25 17 -38 17 -17 0 20 36 23 43 5 4 -10 6 -10 6 -1
1 14 -5 18 -41 27 -24 5 -27 3 -25 -14z"/>
<path d="M13285 19730 c3 -5 8 -10 11 -10 2 0 4 5 4 10 0 6 -5 10 -11 10 -5 0
-7 -4 -4 -10z"/>
<path d="M13404 19695 c-10 -8 -14 -15 -7 -15 6 0 15 5 18 10 4 6 11 7 17 4 7
-4 8 -2 4 4 -9 15 -8 15 -32 -3z"/>
<path d="M13255 19690 c-3 -5 -2 -10 4 -10 5 0 13 5 16 10 3 6 2 10 -4 10 -5
0 -13 -4 -16 -10z"/>
<path d="M13360 19685 c-11 -13 -10 -14 4 -9 12 5 15 2 10 -10 -5 -12 -2 -15
10 -10 14 5 14 9 4 23 -7 9 -13 17 -14 19 -1 1 -7 -4 -14 -13z"/>
<path d="M13463 19686 c0 -7 6 -13 14 -13 7 0 13 4 13 8 0 4 -6 9 -13 12 -8 3
-14 0 -14 -7z"/>
<path d="M13217 19683 c-11 -10 -8 -20 8 -26 8 -4 17 -2 20 4 4 5 3 9 -2 8
-20 -3 -27 2 -13 11 8 5 10 10 4 10 -6 0 -14 -3 -17 -7z"/>
<path d="M13500 19666 c0 -2 7 -7 16 -10 8 -3 12 -2 9 4 -6 10 -25 14 -25 6z"/>
<path d="M13260 19648 c0 -4 7 -8 15 -8 8 0 15 4 15 8 0 5 -7 9 -15 9 -8 0
-15 -4 -15 -9z"/>
<path d="M13326 19652 c-3 -5 1 -9 9 -9 8 0 12 4 9 9 -3 4 -7 8 -9 8 -2 0 -6
-4 -9 -8z"/>
<path d="M13174 19638 c-3 -4 2 -8 10 -8 10 0 13 -6 9 -17 -4 -10 -2 -14 4
-10 6 4 19 0 28 -9 9 -9 19 -13 23 -10 3 4 0 11 -8 16 -11 7 -6 10 19 10 19 0
31 3 27 7 -11 11 -51 11 -58 -1 -6 -8 -11 -7 -17 4 -5 8 -8 17 -6 20 2 4 -3 7
-11 7 -8 0 -17 -4 -20 -9z"/>
<path d="M13335 19620 c-16 -7 -17 -9 -3 -9 9 -1 20 4 23 9 7 11 7 11 -20 0z"/>
<path d="M13435 19610 c-4 -6 -11 -7 -17 -4 -7 4 -8 2 -4 -5 6 -9 11 -9 22 0
14 11 18 19 10 19 -3 0 -8 -5 -11 -10z"/>
<path d="M13357 19599 c-10 -6 -25 -8 -33 -5 -8 3 -14 0 -14 -7 0 -7 11 -12
24 -12 13 0 22 3 19 8 -4 7 12 11 30 8 5 -1 6 3 2 9 -7 12 -6 12 -28 -1z"/>
<path d="M13270 19580 c0 -5 7 -7 15 -4 8 4 15 8 15 10 0 2 -7 4 -15 4 -8 0
-15 -4 -15 -10z"/>
<path d="M13325 19550 c4 -6 10 -8 15 -5 5 3 11 -3 13 -12 4 -14 5 -13 6 5 1
16 -5 22 -20 22 -11 0 -17 -5 -14 -10z"/>
<path d="M13284 19519 c-3 -6 -1 -15 5 -20 6 -5 9 -6 6 -3 -3 4 0 13 6 21 8 9
8 13 1 13 -6 0 -14 -5 -18 -11z"/>
<path d="M13328 19493 c6 -2 18 -2 25 0 6 3 1 5 -13 5 -14 0 -19 -2 -12 -5z"/>
<path d="M13358 19402 c-4 -14 -2 -20 5 -15 6 3 22 7 36 9 44 4 47 6 21 13
-14 4 -30 4 -37 -1 -7 -5 -13 -4 -15 4 -3 7 -7 3 -10 -10z"/>
<path d="M13309 19390 c-13 -10 -18 -19 -11 -20 6 0 12 4 12 8 0 5 10 14 23
20 12 6 17 11 11 11 -7 1 -22 -8 -35 -19z"/>
<path d="M13405 19369 c-4 -6 -18 -9 -31 -6 -14 2 -27 0 -30 -5 -3 -4 -9 -6
-14 -3 -5 3 -11 1 -14 -4 -7 -11 13 -9 33 3 11 7 13 5 7 -9 -5 -15 -4 -16 9
-5 11 9 18 10 28 1 8 -6 17 -8 20 -4 10 9 8 -6 -2 -26 -8 -13 -5 -17 12 -18
13 -1 17 1 10 5 -6 4 -11 16 -10 27 1 13 -3 19 -13 17 -11 -2 -10 1 3 12 11 8
14 17 8 20 -5 4 -13 1 -16 -5z"/>
<path d="M13377 19323 c-10 -9 -9 -33 1 -33 4 0 8 9 8 20 0 23 0 22 -9 13z"/>
<path d="M13629 19307 c6 -8 7 -18 3 -22 -4 -5 -1 -5 6 -1 10 6 10 11 1 22 -6
8 -14 14 -16 14 -3 0 0 -6 6 -13z"/>
<path d="M13359 19278 c-5 -18 -6 -38 -1 -34 7 8 12 36 6 36 -2 0 -4 -1 -5 -2z"/>
<path d="M13395 19263 c4 -14 2 -23 -5 -23 -6 0 -9 -4 -6 -9 3 -5 0 -11 -8
-14 -7 -3 -15 -14 -18 -24 -4 -14 0 -19 16 -20 12 -1 15 1 9 4 -18 7 -16 20 8
44 20 20 21 20 34 2 8 -10 15 -22 15 -27 0 -5 3 -7 6 -3 4 3 -8 25 -26 49 -20
27 -30 35 -25 21z"/>
<path d="M13418 19273 c7 -3 16 -2 19 1 4 3 -2 6 -13 5 -11 0 -14 -3 -6 -6z"/>
<path d="M13408 19203 c6 -2 10 -9 6 -14 -3 -5 0 -9 6 -9 6 0 8 -5 4 -12 -4
-7 -3 -8 4 -4 15 9 -3 46 -21 45 -9 0 -9 -2 1 -6z"/>
<path d="M13516 19165 c4 -8 8 -15 10 -15 2 0 4 7 4 15 0 8 -4 15 -10 15 -5 0
-7 -7 -4 -15z"/>
<path d="M13586 19172 c-3 -5 1 -9 9 -9 8 0 12 4 9 9 -3 4 -7 8 -9 8 -2 0 -6
-4 -9 -8z"/>
<path d="M13546 19128 c3 -5 10 -6 15 -3 13 9 11 12 -6 12 -8 0 -12 -4 -9 -9z"/>
<path d="M13407 19087 c-12 -20 -21 -27 -25 -20 -5 7 -13 9 -21 4 -9 -6 -8
-10 7 -14 14 -3 29 4 46 24 14 15 22 30 18 33 -4 2 -16 -10 -25 -27z"/>
<path d="M13532 19100 c0 -14 2 -19 5 -12 2 6 2 18 0 25 -3 6 -5 1 -5 -13z"/>
<path d="M13460 19070 c6 -11 12 -20 13 -20 2 0 3 9 4 20 1 12 -4 20 -13 20
-12 0 -12 -4 -4 -20z"/>
<path d="M13510 19060 c-13 -8 -12 -10 3 -10 9 0 17 5 17 10 0 12 -1 12 -20 0z"/>
<path d="M13416 19051 c-4 -5 -2 -12 3 -15 5 -4 12 -2 15 3 4 5 2 12 -3 15 -5
4 -12 2 -15 -3z"/>
<path d="M13506 19024 c-8 -21 -8 -24 3 -24 12 0 22 28 12 35 -5 3 -12 -2 -15
-11z"/>
<path d="M13402 19012 c-6 -2 -10 -8 -6 -13 3 -5 0 -9 -5 -9 -6 0 -11 -9 -11
-20 0 -11 7 -20 16 -20 9 0 14 8 13 18 -3 32 1 41 16 36 8 -4 15 -2 15 3 0 10
-17 12 -38 5z"/>
<path d="M13487 18963 c5 -12 3 -14 -7 -8 -9 5 -11 4 -6 -3 4 -7 16 -17 27
-23 20 -10 20 -9 4 20 -17 33 -29 42 -18 14z"/>
<path d="M13556 18931 c-4 -7 -5 -15 -2 -18 9 -9 19 4 14 18 -4 11 -6 11 -12
0z"/>
<path d="M13590 18915 c0 -8 4 -15 10 -15 5 0 7 7 4 15 -4 8 -8 15 -10 15 -2
0 -4 -7 -4 -15z"/>
<path d="M14928 18763 c7 -3 16 -2 19 1 4 3 -2 6 -13 5 -11 0 -14 -3 -6 -6z"/>
</g>
</svg>
